<?xml version="1.0" standalone="no"?>
<!DOCTYPE svg PUBLIC "-//W3C//DTD SVG 20010904//EN"
 "http://www.w3.org/TR/2001/REC-SVG-20010904/DTD/svg10.dtd">
<svg version="1.0" xmlns="http://www.w3.org/2000/svg"
 width="300.000000pt" height="300.000000pt" viewBox="0 0 300.000000 300.000000"
 preserveAspectRatio="xMidYMid meet">
<metadata>
Created by potrace 1.11, written by Peter Selinger 2001-2013
</metadata>
<g transform="translate(0.000000,300.000000) scale(0.100000,-0.100000)"
fill="#000000" stroke="none">
<path d="M1398 2995 c-2 -2 -28 -6 -58 -9 -339 -39 -651 -189 -891 -428 -226
-225 -373 -511 -424 -823 -2 -16 -8 -48 -11 -70 -8 -47 -13 -286 -6 -299 3 -5
7 -27 9 -50 4 -47 29 -177 43 -221 55 -175 118 -311 203 -435 27 -41 53 -77
56 -80 3 -3 18 -21 33 -41 67 -90 231 -232 362 -314 118 -73 316 -157 426
-181 14 -2 59 -12 100 -21 53 -11 129 -16 260 -16 156 -1 202 3 295 22 530
111 943 472 1123 981 26 75 50 174 68 280 3 19 7 103 9 185 2 161 -11 282 -45
399 -11 39 -23 81 -25 94 -11 49 -100 238 -151 319 -74 117 -137 194 -236 288
-106 101 -116 109 -213 172 -183 119 -405 205 -591 228 -27 4 -58 9 -69 12
-19 6 -262 13 -267 8z"/>
</g>
</svg>
